<?xml version="1.0" standalone="no"?>
<!DOCTYPE svg PUBLIC "-//W3C//DTD SVG 20010904//EN"
 "http://www.w3.org/TR/2001/REC-SVG-20010904/DTD/svg10.dtd">
<svg version="1.0" xmlns="http://www.w3.org/2000/svg"
 width="731.000000pt" height="255.000000pt" viewBox="0 0 731.000000 255.000000"
 preserveAspectRatio="xMidYMid meet">

<g transform="translate(0.000000,255.000000) scale(0.100000,-0.100000)"
fill="#000000" stroke="none">
<path d="M830 2483 c-408 -324 -698 -757 -789 -1178 -11 -49 -23 -121 -26
-160 -3 -38 -8 -91 -11 -117 l-5 -47 63 -35 c314 -175 857 -236 1295 -146 131
27 294 83 388 134 l80 43 -3 98 c-13 469 -325 1010 -804 1395 -54 44 -100 80
-101 80 -2 0 -41 -30 -87 -67z"/>
<path d="M2130 1655 l0 -765 135 0 135 0 0 310 0 310 490 0 490 0 0 -310 0
-310 140 0 140 0 -2 763 -3 762 -137 3 -138 3 0 -316 0 -315 -487 2 -488 3 -3
313 -2 312 -135 0 -135 0 0 -765z"/>
<path d="M4276 2409 c-167 -28 -282 -154 -307 -337 -7 -49 -9 -233 -7 -483 4
-392 4 -406 26 -461 27 -67 94 -146 156 -182 93 -54 114 -56 701 -56 603 0
589 -2 627 70 16 32 18 64 18 378 0 370 0 371 -55 422 l-27 25 -464 3 -464 3
0 -141 0 -140 370 0 370 0 -2 -172 -3 -173 -458 0 -459 0 -29 33 -29 32 0 426
0 426 29 29 29 29 591 0 591 0 0 140 0 140 -577 -1 c-318 -1 -600 -5 -627 -10z"/>
<path d="M5800 2280 l0 -140 305 0 305 0 0 -625 0 -625 135 0 135 0 0 625 0
625 310 0 311 0 -3 138 -3 137 -747 3 -748 2 0 -140z"/>
<path d="M1750 395 l0 -245 30 0 30 0 0 245 0 245 -30 0 -30 0 0 -245z"/>
<path d="M2730 600 c-25 -49 -25 -50 3 -50 13 0 32 13 48 33 43 55 44 57 5 57
-31 0 -38 -5 -56 -40z"/>
<path d="M4050 605 c0 -32 2 -35 30 -35 28 0 30 3 30 35 0 32 -2 35 -30 35
-28 0 -30 -3 -30 -35z"/>
<path d="M6470 605 c0 -32 2 -35 30 -35 28 0 30 3 30 35 0 32 -2 35 -30 35
-28 0 -30 -3 -30 -35z"/>
<path d="M6762 595 l-22 -45 24 0 c16 0 36 15 60 45 l37 45 -38 0 c-36 0 -41
-3 -61 -45z"/>
<path d="M73 607 c-19 -8 -23 -18 -23 -59 0 -45 -2 -48 -25 -48 -18 0 -25 -5
-25 -20 0 -15 7 -20 25 -20 l25 0 0 -139 c0 -155 4 -165 65 -177 42 -7 55 0
55 32 0 20 -5 24 -30 24 -25 0 -30 5 -35 33 -3 17 -5 75 -3 127 l3 95 33 3
c23 2 32 8 32 22 0 14 -9 20 -32 22 -32 3 -33 4 -38 59 -5 54 -6 56 -27 46z"/>
<path d="M305 497 c-128 -60 -127 -288 2 -343 76 -32 168 -8 211 56 l23 35
-26 8 c-24 8 -31 5 -57 -27 -25 -31 -35 -36 -72 -36 -48 0 -80 19 -101 60 -31
59 -28 60 121 60 l137 0 -6 52 c-11 88 -64 139 -149 145 -31 2 -65 -2 -83 -10z
m126 -47 c19 -10 49 -59 49 -80 0 -6 -38 -10 -104 -10 -103 0 -104 0 -99 23
11 42 53 77 96 77 21 0 47 -5 58 -10z"/>
<path d="M690 492 c-65 -32 -99 -115 -86 -207 18 -117 132 -178 234 -126 37
19 72 65 72 95 0 23 -49 21 -57 -1 -23 -66 -107 -86 -156 -37 -48 48 -48 157
-1 214 21 25 33 30 69 30 35 0 48 -5 64 -26 11 -14 21 -29 23 -34 2 -6 15 -6
30 -2 l28 7 -18 35 c-20 42 -72 70 -127 70 -22 0 -56 -8 -75 -18z"/>
<path d="M1073 494 c-18 -9 -33 -20 -33 -25 0 -5 -4 -9 -10 -9 -5 0 -10 9 -10
20 0 15 -7 20 -25 20 l-25 0 0 -175 0 -175 30 0 30 0 0 126 c0 125 0 126 29
155 36 36 90 40 121 9 18 -18 20 -33 20 -155 l0 -135 30 0 30 0 0 140 c0 83
-5 149 -11 164 -23 51 -113 71 -176 40z"/>
<path d="M1435 496 c-42 -18 -83 -69 -91 -112 -25 -134 35 -233 148 -241 67
-6 132 26 159 77 28 51 26 160 -3 211 -38 68 -138 98 -213 65z m126 -46 c67
-36 67 -214 0 -250 -11 -5 -37 -10 -59 -10 -72 0 -111 65 -99 166 7 63 46 104
100 104 21 0 47 -5 58 -10z"/>
<path d="M1971 488 c-59 -31 -83 -78 -83 -163 0 -85 24 -132 83 -163 80 -42
169 -21 223 52 30 40 30 182 0 222 -54 73 -143 94 -223 52z m151 -57 c32 -28
33 -32 33 -105 0 -69 -2 -77 -29 -105 -24 -25 -38 -31 -72 -31 -57 0 -89 27
-104 89 -33 137 79 236 172 152z"/>
<path d="M2364 496 c-86 -37 -117 -193 -58 -284 39 -59 130 -79 192 -42 l32
20 0 -41 c0 -91 -107 -134 -172 -69 -35 35 -68 40 -68 9 0 -35 51 -76 104 -84
88 -14 167 26 186 93 5 20 10 119 10 220 l0 182 -25 0 c-18 0 -25 -5 -25 -20
0 -18 -2 -18 -36 5 -41 28 -92 32 -140 11z m129 -57 c53 -41 58 -152 11 -208
-56 -67 -140 -41 -164 51 -25 90 20 178 90 178 22 0 48 -8 63 -21z"/>
<path d="M2955 498 c-40 -14 -62 -34 -74 -69 -9 -27 -8 -29 18 -29 19 0 34 9
49 30 20 27 28 30 76 30 60 0 86 -19 86 -63 0 -29 -3 -30 -110 -48 -63 -10
-80 -17 -107 -44 -42 -42 -44 -83 -5 -126 24 -27 37 -33 83 -36 44 -4 63 0
101 20 44 24 46 25 51 6 4 -13 14 -19 35 -19 29 0 30 1 21 38 -5 20 -9 86 -9
145 0 60 -5 117 -11 129 -23 42 -131 61 -204 36z m134 -274 c-50 -53 -137 -52
-161 2 -11 24 -10 29 15 50 15 13 47 26 74 30 27 4 57 10 68 14 18 7 20 3 23
-32 3 -31 -2 -46 -19 -64z"/>
<path d="M3545 496 c-37 -17 -70 -52 -84 -89 -18 -47 -13 -143 9 -186 52 -102
235 -107 286 -8 13 25 14 31 2 38 -18 12 -48 11 -48 -1 0 -6 -11 -22 -25 -35
-59 -60 -175 -10 -175 74 0 20 5 21 136 21 l136 0 -7 47 c-9 62 -27 96 -66
124 -39 28 -121 35 -164 15z m138 -61 c13 -14 27 -37 29 -50 l5 -25 -103 0
c-66 0 -104 4 -104 10 0 20 30 69 47 79 35 20 98 13 126 -14z"/>
<path d="M4296 485 c-34 -23 -36 -23 -36 -5 0 15 -7 20 -25 20 l-25 0 0 -175
0 -175 24 0 c23 0 23 2 29 123 3 67 8 130 12 140 10 23 57 47 94 47 20 0 36
-8 50 -26 19 -24 21 -40 21 -155 l0 -129 30 0 30 0 0 135 c0 102 -4 143 -15
165 -32 62 -124 79 -189 35z"/>
<path d="M4686 485 c-34 -23 -36 -23 -36 -5 0 15 -7 20 -25 20 l-25 0 0 -175
0 -175 30 0 30 0 0 124 c0 68 3 132 6 141 9 21 56 45 92 45 17 0 37 -9 50 -23
20 -21 22 -34 22 -155 l0 -132 30 0 30 0 0 135 c0 102 -4 143 -15 165 -32 62
-124 79 -189 35z"/>
<path d="M5051 488 c-60 -32 -82 -77 -82 -163 0 -87 22 -132 82 -163 54 -29
135 -26 176 4 57 43 68 69 68 159 0 69 -4 88 -21 111 -55 74 -144 94 -223 52z
m155 -59 c27 -28 29 -36 29 -104 0 -68 -2 -76 -29 -104 -23 -24 -38 -31 -69
-31 -21 0 -47 5 -58 10 -67 36 -68 210 -2 249 10 6 36 11 59 11 32 0 46 -6 70
-31z"/>
<path d="M5804 499 c-34 -10 -68 -43 -79 -76 -6 -20 -3 -23 24 -23 17 0 31 5
31 10 0 27 41 50 88 50 60 0 92 -21 92 -60 0 -32 -7 -35 -85 -45 -109 -14
-165 -51 -165 -110 0 -93 110 -135 213 -81 43 23 45 24 50 5 4 -14 14 -19 36
-19 28 0 31 2 21 19 -5 11 -10 74 -10 141 0 138 -11 171 -61 189 -37 13 -111
13 -155 0z m141 -266 c-17 -26 -70 -53 -103 -53 -11 0 -31 9 -46 21 -53 41
-21 92 65 104 30 4 63 11 74 15 17 6 20 3 23 -27 2 -20 -4 -45 -13 -60z"/>
<path d="M6190 492 c-118 -59 -118 -275 0 -334 84 -43 195 1 215 84 7 26 5 28
-24 28 -20 0 -31 -5 -31 -14 0 -7 -9 -25 -21 -40 -29 -37 -99 -37 -134 0 -46
50 -45 166 3 217 36 38 101 39 131 1 11 -14 21 -29 23 -34 2 -6 15 -6 31 -2
l27 7 -18 34 c-35 66 -129 90 -202 53z"/>
<path d="M6691 488 c-59 -30 -85 -80 -85 -163 0 -78 26 -132 80 -162 67 -39
162 -26 210 28 68 77 53 234 -28 293 -42 30 -123 32 -177 4z m137 -44 c33 -23
52 -67 52 -119 0 -50 -10 -77 -43 -112 -31 -35 -100 -32 -137 5 -53 53 -49
178 7 221 31 25 89 27 121 5z"/>
<path d="M7106 485 c-34 -23 -36 -23 -36 -5 0 15 -7 20 -25 20 l-25 0 0 -175
0 -175 24 0 c23 0 24 1 28 122 3 68 9 131 13 141 10 24 57 47 94 47 20 0 36
-8 50 -26 19 -24 21 -40 21 -155 l0 -129 30 0 30 0 0 130 c0 90 -4 141 -14
165 -28 66 -122 86 -190 40z"/>
<path d="M2710 325 l0 -175 30 0 30 0 0 175 0 175 -30 0 -30 0 0 -175z"/>
<path d="M4050 325 l0 -175 30 0 30 0 0 175 0 175 -30 0 -30 0 0 -175z"/>
<path d="M5409 328 c64 -167 68 -173 96 -176 l30 -3 67 176 66 176 -30 -3
c-30 -3 -32 -7 -82 -142 -27 -76 -52 -135 -54 -130 -1 5 -24 68 -50 139 -46
127 -48 130 -79 133 l-31 3 67 -173z"/>
<path d="M6470 325 l0 -175 30 0 30 0 0 175 0 175 -30 0 -30 0 0 -175z"/>
</g>
</svg>
